<svg xmlns="http://www.w3.org/2000/svg" xmlns:xlink="http://www.w3.org/1999/xlink" fill="none" viewBox="20.77 20.78 50.03 50"><radialGradient id="a" cx="0" cy="0" gradientTransform="matrix(65.31 0 0 65.2708 27.4124 71.0175)" gradientUnits="userSpaceOnUse" r="1"><stop offset=".09" stop-color="#fa8f21"/><stop offset=".78" stop-color="#d82d7e"/></radialGradient><radialGradient id="b" cx="0" cy="0" gradientTransform="matrix(51.4733 0 0 51.4424 51.1066 73.2574)" gradientUnits="userSpaceOnUse" r="1"><stop offset=".64" stop-color="#8c3aaa" stop-opacity="0"/><stop offset="1" stop-color="#8c3aaa"/></radialGradient><path d="m37.4436 45.7812c0-4.6021 3.7321-8.334 8.337-8.334 4.605 0 8.339 3.7319 8.339 8.334 0 4.6022-3.734 8.334-8.339 8.334-4.6049 0-8.337-3.7318-8.337-8.334zm-4.5079 0c0 7.0901 5.7507 12.8373 12.8449 12.8373 7.0943 0 12.8449-5.7472 12.8449-12.8373 0-7.09-5.7506-12.8372-12.8449-12.8372-7.0942 0-12.8449 5.7472-12.8449 12.8372zm23.1965-13.3461c-.0002.5933.1756 1.1734.5053 1.6669.3296.4934.7983.8781 1.3467 1.1054s1.1519.287 1.7343.1714c.5823-.1155 1.1173-.401 1.5373-.8204s.7061-.9538.8221-1.5357c.1161-.5819.0569-1.1851-.1701-1.7334s-.6115-1.017-1.1051-1.3468c-.4935-.3298-1.0738-.506-1.6675-.5063h-.0012c-.7958.0004-1.5589.3164-2.1217.8787-.5629.5623-.8794 1.3248-.8801 2.1202zm-20.4576 33.6955c-2.4389-.111-3.7645-.517-4.6454-.86-1.1679-.4544-2.0012-.9956-2.8773-1.8699-.8762-.8745-1.4185-1.7065-1.8712-2.8736-.3434-.8801-.7496-2.2053-.8605-4.6427-.1213-2.6352-.1455-3.4268-.1455-10.1029 0-6.6763.0262-7.4657.1455-10.1031.1111-2.4374.5203-3.76.8605-4.6426.4547-1.1672.9962-2 1.8712-2.8755.8749-.8756 1.7074-1.4176 2.8773-1.87.8805-.3432 2.2065-.7493 4.6454-.8601 2.6367-.1212 3.4288-.1454 10.106-.1454s7.4701.0262 10.1091.1454c2.4389.111 3.7622.5201 4.6454.8601 1.1679.4524 2.0012.9956 2.8773 1.87.8761.8743 1.4164 1.7083 1.8711 2.8755.3434.88.7497 2.2052.8605 4.6426.1213 2.6374.1455 3.4268.1455 10.1031 0 6.6761-.0242 7.4656-.1455 10.1029-.111 2.4374-.5193 3.7622-.8605 4.6427-.4547 1.1671-.9962 2-1.8711 2.8736s-1.7094 1.4155-2.8773 1.8699c-.8806.3432-2.2065.7492-4.6454.86-2.6368.1213-3.4289.1455-10.1091.1455s-7.4701-.0242-10.106-.1455zm-.2072-45.198c-2.663.1212-4.4826.5432-6.0718 1.1612-1.6458.6382-3.039 1.4944-4.4313 2.8836-1.3922 1.3892-2.2467 2.7838-2.8853 4.4286-.6184 1.5892-1.0406 3.4068-1.1619 6.0682-.1233 2.6657-.1515 3.5179-.1515 10.307 0 6.7892.0282 7.6414.1515 10.307.1213 2.6616.5435 4.479 1.1619 6.0682.6386 1.6439 1.4933 3.04 2.8853 4.4286 1.3921 1.3886 2.7855 2.2437 4.4313 2.8837 1.5922.618 3.4088 1.0399 6.0718 1.1611 2.6686.1212 3.52.1514 10.3132.1514 6.7933 0 7.646-.0282 10.3132-.1514 2.6632-.1212 4.4817-.5431 6.0719-1.1611 1.6447-.64 3.039-1.4945 4.4312-2.8837s2.245-2.7847 2.8853-4.4286c.6184-1.5892 1.0427-3.4068 1.1619-6.0682.1213-2.6675.1495-3.5178.1495-10.307 0-6.7891-.0282-7.6413-.1495-10.307-.1212-2.6616-.5435-4.48-1.1619-6.0682-.6403-1.6438-1.4953-3.0372-2.8853-4.4286s-2.7865-2.2454-4.4292-2.8836c-1.5922-.618-3.4109-1.042-6.0719-1.1612-2.6672-.1211-3.5199-.1514-10.3132-.1514-6.7932 0-7.6466.0283-10.3152.1514z" fill="url(#a)"/><path d="m37.4436 45.7812c0-4.6021 3.7321-8.334 8.337-8.334 4.605 0 8.339 3.7319 8.339 8.334 0 4.6022-3.734 8.334-8.339 8.334-4.6049 0-8.337-3.7318-8.337-8.334zm-4.5079 0c0 7.0901 5.7507 12.8373 12.8449 12.8373 7.0943 0 12.8449-5.7472 12.8449-12.8373 0-7.09-5.7506-12.8372-12.8449-12.8372-7.0942 0-12.8449 5.7472-12.8449 12.8372zm23.1965-13.3461c-.0002.5933.1756 1.1734.5053 1.6669.3296.4934.7983.8781 1.3467 1.1054s1.1519.287 1.7343.1714c.5823-.1155 1.1173-.401 1.5373-.8204s.7061-.9538.8221-1.5357c.1161-.5819.0569-1.1851-.1701-1.7334s-.6115-1.017-1.1051-1.3468c-.4935-.3298-1.0738-.506-1.6675-.5063h-.0012c-.7958.0004-1.5589.3164-2.1217.8787-.5629.5623-.8794 1.3248-.8801 2.1202zm-20.4576 33.6955c-2.4389-.111-3.7645-.517-4.6454-.86-1.1679-.4544-2.0012-.9956-2.8773-1.8699-.8762-.8745-1.4185-1.7065-1.8712-2.8736-.3434-.8801-.7496-2.2053-.8605-4.6427-.1213-2.6352-.1455-3.4268-.1455-10.1029 0-6.6763.0262-7.4657.1455-10.1031.1111-2.4374.5203-3.76.8605-4.6426.4547-1.1672.9962-2 1.8712-2.8755.8749-.8756 1.7074-1.4176 2.8773-1.87.8805-.3432 2.2065-.7493 4.6454-.8601 2.6367-.1212 3.4288-.1454 10.106-.1454s7.4701.0262 10.1091.1454c2.4389.111 3.7622.5201 4.6454.8601 1.1679.4524 2.0012.9956 2.8773 1.87.8761.8743 1.4164 1.7083 1.8711 2.8755.3434.88.7497 2.2052.8605 4.6426.1213 2.6374.1455 3.4268.1455 10.1031 0 6.6761-.0242 7.4656-.1455 10.1029-.111 2.4374-.5193 3.7622-.8605 4.6427-.4547 1.1671-.9962 2-1.8711 2.8736s-1.7094 1.4155-2.8773 1.8699c-.8806.3432-2.2065.7492-4.6454.86-2.6368.1213-3.4289.1455-10.1091.1455s-7.4701-.0242-10.106-.1455zm-.2072-45.198c-2.663.1212-4.4826.5432-6.0718 1.1612-1.6458.6382-3.039 1.4944-4.4313 2.8836-1.3922 1.3892-2.2467 2.7838-2.8853 4.4286-.6184 1.5892-1.0406 3.4068-1.1619 6.0682-.1233 2.6657-.1515 3.5179-.1515 10.307 0 6.7892.0282 7.6414.1515 10.307.1213 2.6616.5435 4.479 1.1619 6.0682.6386 1.6439 1.4933 3.04 2.8853 4.4286 1.3921 1.3886 2.7855 2.2437 4.4313 2.8837 1.5922.618 3.4088 1.0399 6.0718 1.1611 2.6686.1212 3.52.1514 10.3132.1514 6.7933 0 7.646-.0282 10.3132-.1514 2.6632-.1212 4.4817-.5431 6.0719-1.1611 1.6447-.64 3.039-1.4945 4.4312-2.8837s2.245-2.7847 2.8853-4.4286c.6184-1.5892 1.0427-3.4068 1.1619-6.0682.1213-2.6675.1495-3.5178.1495-10.307 0-6.7891-.0282-7.6413-.1495-10.307-.1212-2.6616-.5435-4.48-1.1619-6.0682-.6403-1.6438-1.4953-3.0372-2.8853-4.4286s-2.7865-2.2454-4.4292-2.8836c-1.5922-.618-3.4109-1.042-6.0719-1.1612-2.6672-.1211-3.5199-.1514-10.3132-.1514-6.7932 0-7.6466.0283-10.3152.1514z" fill="url(#b)"/></svg>